<?xml version="1.0" encoding="utf-8"?>
<!-- Generated by IcoMoon.io -->
<!DOCTYPE svg PUBLIC "-//W3C//DTD SVG 1.1//EN" "http://www.w3.org/Graphics/SVG/1.1/DTD/svg11.dtd">
<svg version="1.1" xmlns="http://www.w3.org/2000/svg" xmlns:xlink="http://www.w3.org/1999/xlink" width="592" height="500" viewBox="0 0 592 500">

<svg id="person" width="22" height="22" viewBox="0 0 22 22" x="0" y="0">
	<path fill="#8500ff" d="M11 12.848q2.32 0 4.834 1.010t2.514 2.643v1.848h-14.695v-1.848q0-1.633 2.514-2.643t4.834-1.010zM11 11q-1.504 0-2.578-1.074t-1.074-2.578 1.074-2.6 2.578-1.096 2.578 1.096 1.074 2.6-1.074 2.578-2.578 1.074z"></path>
</svg>

<svg id="info" width="18" height="18" viewBox="0 0 22 22" x="0" y="34">
	<path fill="#8500ff" d="M11.17 3.254c0 1.158 0.874 1.942 1.953 1.942s1.954-0.785 1.954-1.942c0-1.158-0.874-1.943-1.954-1.943-1.078 0-1.953 0.784-1.953 1.943zM6.941 9.883c0 0.23-0.042 0.8 0.005 1.143l1.704-2.051c0.353-0.386 0.76-0.657 0.969-0.584s0.323 0.318 0.255 0.547l-2.821 9.343c-0.325 1.092 0.289 2.164 1.787 2.409 2.192 0 3.495-1.484 4.777-3.407 0-0.23 0.076-0.834 0.030-1.178l-1.704 2.050c-0.353 0.386-0.791 0.657-1 0.584-0.193-0.067-0.305-0.282-0.267-0.496l2.841-9.386c0.236-1.192-0.406-2.277-1.763-2.416-1.427 0.001-3.531 1.519-4.813 3.441z"></path>
</svg>

<svg id="close" x="0" y="65" width="22" height="22" viewBox="0 0 22 22">
	<line fill="none" stroke="#8500ff" stroke-linecap="round" stroke-miterlimit="10" x1="0.5" y1="0.5" x2="12.5" y2="12.5" stroke-width="2px"/>
	<line fill="none" stroke="#8500ff" stroke-linecap="round" stroke-miterlimit="10" x1="12.5" y1="0.5" x2="0.5" y2="12.5" stroke-width="2px"/>
</svg>

<svg id="threeSixty" width="100px" height="125px" xmlns="http://www.w3.org/2000/svg" xmlns:xlink="http://www.w3.org/1999/xlink" version="1.1" x="0px" y="150px" viewBox="0 0 100 125" enable-background="new 0 0 100 100" xml:space="preserve"><g><path fill="#000000" d="M69.225,45.829c0-1.481,1.193-2.702,2.674-2.702c1.474,0,2.699,1.221,2.699,2.702   c0,1.478-1.225,2.674-2.699,2.674C70.418,48.503,69.225,47.307,69.225,45.829 M67.903,45.829c0,2.231,1.787,4.018,4.021,4.018   s4.021-1.787,4.021-4.018c0-2.234-1.787-4.018-4.021-4.018S67.903,43.595,67.903,45.829 M53.116,51.149   c0,5.369,1.632,9.334,6.1,9.334c4.461,0,6.094-3.965,6.094-9.334c0-5.372-1.632-9.337-6.094-9.337   C54.748,41.812,53.116,45.777,53.116,51.149 M54.674,51.149c0-4.489,1.168-7.863,4.542-7.863c3.371,0,4.539,3.374,4.539,7.863   c0,4.486-1.168,7.86-4.539,7.86C55.842,59.009,54.674,55.635,54.674,51.149 M44.088,49.977c2.625,0,4.489,1.945,4.489,4.514   c0,2.544-1.914,4.517-4.433,4.517c-2.625,0-4.514-1.998-4.514-4.517c0-1.4,0.619-2.41,1.115-3.216   C41.625,50.47,42.793,49.977,44.088,49.977 M46.688,42.068h-1.766l-5.577,8.613c-0.623,0.957-1.274,2.28-1.274,3.916   c0,3.216,2.568,5.862,6.016,5.886c3.455,0,6.048-2.59,6.048-5.992c0-3.293-2.466-5.988-5.942-5.988   c-0.697,0-1.323,0.102-1.865,0.285L46.688,42.068z M23.471,57.637c1.09,1.787,3.061,2.846,5.446,2.846   c3.581,0,6.044-2.822,6.044-6.083c0-3.18-2.385-5.766-5.654-6.002l4.616-5.369v-0.96h-9.594v1.477h7.209l-4.799,5.552v0.96   c0.236-0.081,0.855-0.26,1.84-0.26c2.751,0,4.827,1.967,4.827,4.602c0,2.463-1.766,4.609-4.489,4.609   c-1.893,0-3.371-0.855-4.201-2.174L23.471,57.637z"/></g><path fill="#000000" d="M94.536,64.995l-9.039,2.393c2.489-5.47,3.814-11.298,3.814-17.386c0-23.245-18.911-42.156-42.156-42.156  S5,26.757,5,50.002c0,23.242,18.911,42.152,42.156,42.152c8.739,0,17.12-2.646,24.234-7.656l-1.034-1.471  c-6.811,4.792-14.833,7.325-23.199,7.325c-22.251,0-40.354-18.101-40.354-40.351c0-22.251,18.103-40.354,40.354-40.354  c22.253,0,40.354,18.103,40.354,40.354c0,5.851-1.276,11.447-3.674,16.7l-2.849-9.239l-1.724,0.528l3.684,11.934L95,66.733  L94.536,64.995z"/>
</svg>

<svg id="cardboard" width="24px" height="24px" viewBox="0 0 24 24" version="1.1" xmlns="http://www.w3.org/2000/svg" x="0" y="250" xmlns:xlink="http://www.w3.org/1999/xlink" xmlns:sketch="http://www.bohemiancoding.com/sketch/ns">
    <g id="Page-1" stroke="none" stroke-width="1" fill="none" fill-rule="evenodd" sketch:type="MSPage">
        <g id="cardboard" sketch:type="MSArtboardGroup">
            <path d="M20.6364972,6 L3.19864407,6 C2.54824859,6 2,6.56836937 2,7.26931532 L2,17.7111261 C2,18.4120721 2.54824859,18.9803243 3.22463277,18.9803243 L7.9880226,18.9803243 C8.49875706,18.9803243 8.93649718,18.6564955 9.12045198,18.195991 L10.5055367,14.7287387 C10.739096,14.1440901 11.2949153,13.7327748 11.9435028,13.7327748 C12.5920904,13.7327748 13.1479096,14.1440901 13.3814689,14.7287387 L14.7665537,18.195991 C14.9505085,18.6564955 15.3882486,18.9803243 15.8729944,18.9803243 L20.6364972,18.9803243 C21.3387571,18.9803243 21.8870056,18.4120721 21.8870056,17.7111261 L21.8870056,7.26931532 C21.8870056,6.56836937 21.3387571,6 20.6364972,6 L20.6364972,6 Z M7.43310734,14.7744144 C6.21468927,14.7744144 5.22813559,13.7523333 5.22813559,12.4901622 C5.22813559,11.227991 6.21468927,10.206027 7.43310734,10.206027 C8.65141243,10.206027 9.6359322,11.227991 9.6359322,12.4901622 C9.6359322,13.7523333 8.64926554,14.7744144 7.43310734,14.7744144 L7.43310734,14.7744144 Z M16.4550282,14.7733604 C15.2372881,14.7733604 14.2510734,13.7517477 14.2510734,12.4901622 C14.2510734,11.2286937 15.2372881,10.2070811 16.4550282,10.2070811 C17.6727684,10.2070811 18.6589831,11.2286937 18.6589831,12.4901622 C18.6589831,13.7517477 17.6727684,14.7733604 16.4550282,14.7733604 L16.4550282,14.7733604 Z" id="Imported-Layers" fill="#000000" sketch:type="MSShapeGroup"></path>
            <g id="Oval-2-+-Imported-Layers" sketch:type="MSLayerGroup" transform="translate(18.000000, 20.000000)"></g>
        </g>
    </g>
</svg>

<svg id="sound" x="0" y="350" xmlns="http://www.w3.org/2000/svg" width="24" height="24" viewBox="0 0 24 24"><path d="M2 6h3.828c-1.335 2.905-1.335 9.096 0 12h-3.828c-1.311-1.108-2-3.551-2-5.995 0-2.45.692-4.9 2-6.005zm22 6.005c.005 8.031-3.145 12.864-6.121 11.864-.774-.26-9.567-5.579-9.567-5.579-1.993-2.22-1.993-10.288 0-12.508 0 0 9.161-5.476 9.548-5.633 2.691-1.086 6.136 3.82 6.14 11.856zm-3.383-7.693c-1.053-2.264-3.002-2.226-4.034.002-.588 1.271-.993 3.165-1.21 4.797h.527c1.587 0 2.873 1.287 2.873 2.875s-1.286 2.875-2.873 2.875h-.515c.217 1.603.616 3.538 1.206 4.89.988 2.271 3.062 2.232 4.033-.002 1.946-4.477 1.772-11.609-.007-15.437z"/></svg>


</svg>
