<svg>
	<defs>
		<symbol id="info">
			<path fill="#8500ff" d="M-1.505,45.475c1.019-3.233,2.949-7.105,3.29-8.084c0.493-1.422-0.381-2.053-3.144,0.378l-0.614-1.156
				c3.151-3.428,9.64-4.203,7.432,1.108c-1.379,3.316-2.365,5.555-2.929,7.282c-0.822,2.517,1.254,1.496,3.287-0.381
				c0.276,0.452,0.367,0.598,0.643,1.119C1.947,50.035-3.064,50.415-1.505,45.475z M7.064,30.713c-0.961,0.819-2.385,0.8-3.182-0.04
				c-0.797-0.84-0.663-2.183,0.296-3.001c0.961-0.819,2.385-0.799,3.182,0.04C8.153,28.554,8.023,29.897,7.064,30.713z"/>
		</symbol>
		<symbol id="login">
			<path fill="#8500ff" d="M58.041,43.659c-3.152-0.728-6.087-1.366-4.666-4.05c4.327-8.169,1.147-12.538-3.421-12.538
				c-4.658,0-7.759,4.537-3.421,12.538c1.464,2.7-1.581,3.338-4.666,4.05c-2.817,0.651-2.922,2.05-2.913,4.495l0.004,0.917h21.991
				l0.004-0.888C60.963,45.718,60.868,44.312,58.041,43.659z"/>
		</symbol>
	</defs>
</svg>
