<svg viewBox="0 0 22 22" width="18" height="18" x="0" y="0">
    <path fill="#8500ff" d="M11.17 3.254c0 1.158 0.874 1.942 1.953 1.942s1.954-0.785 1.954-1.942c0-1.158-0.874-1.943-1.954-1.943-1.078 0-1.953 0.784-1.953 1.943zM6.941 9.883c0 0.23-0.042 0.8 0.005 1.143l1.704-2.051c0.353-0.386 0.76-0.657 0.969-0.584s0.323 0.318 0.255 0.547l-2.821 9.343c-0.325 1.092 0.289 2.164 1.787 2.409 2.192 0 3.495-1.484 4.777-3.407 0-0.23 0.076-0.834 0.030-1.178l-1.704 2.050c-0.353 0.386-0.791 0.657-1 0.584-0.193-0.067-0.305-0.282-0.267-0.496l2.841-9.386c0.236-1.192-0.406-2.277-1.763-2.416-1.427 0.001-3.531 1.519-4.813 3.441z"></path>
</svg>

