<svg class="icon icon--vr" xmlns="http://www.w3.org/2000/svg" xmlns:xlink="http://www.w3.org/1999/xlink" version="1.1" x="0px" y="0px" viewBox="0 0 512 512" enable-background="new 0 0 512 512" xml:space="preserve"><g><path fill="#ffffff" d="M256.016,98.943C153.989,98.943,62.463,159.723,0.013,256c62.45,96.278,153.977,157.057,256.003,157.057   c102.011,0,193.538-60.778,255.972-157.057C449.553,159.723,358.026,98.943,256.016,98.943z M256.016,354.151   c-54.123,0-98.136-44.029-98.136-98.152s44.013-98.151,98.136-98.151c54.091,0,98.136,44.028,98.136,98.151   S310.106,354.151,256.016,354.151z"/><path fill="#ffffff" d="M256.016,197.111c-32.467,0-58.872,26.421-58.872,58.888c0,32.468,26.405,58.904,58.872,58.904   c32.45,0,58.872-26.438,58.872-58.904S288.466,197.111,256.016,197.111z"/></g></svg>